<svg xmlns="http://www.w3.org/2000/svg" viewBox="0 0 38.884 22" width="38.884" height="22" preserveAspectRatio="xMinYMid meet" role="img" aria-hidden="true"><path d="M7.666 0.195 Q5.752 0.195 4.248 -0.693 Q2.744 -1.582 1.875 -3.252 Q1.006 -4.922 1.006 -7.266 Q1.006 -9.619 1.88 -11.294 Q2.754 -12.969 4.258 -13.857 Q5.762 -14.746 7.666 -14.746 Q9.258 -14.746 10.562 -14.15 Q11.865 -13.555 12.715 -12.427 Q13.564 -11.299 13.799 -9.707 L11.172 -9.707 Q10.928 -10.996 9.971 -11.704 Q9.014 -12.412 7.705 -12.412 Q5.918 -12.412 4.771 -11.079 Q3.623 -9.746 3.623 -7.266 Q3.623 -4.756 4.775 -3.447 Q5.928 -2.139 7.695 -2.139 Q9.004 -2.139 9.966 -2.847 Q10.928 -3.555 11.172 -4.844 L13.809 -4.844 Q13.604 -3.447 12.803 -2.305 Q12.002 -1.162 10.693 -0.483 Q9.385 0.195 7.666 0.195 Z M17.623 -6.396 L17.623 0 L15.084 0 L15.084 -14.551 L17.584 -14.551 L17.584 -8.896 Q18.58 -11.055 20.895 -11.055 Q22.584 -11.055 23.609 -9.98 Q24.635 -8.906 24.635 -6.943 L24.635 0 L22.086 0 L22.086 -6.553 Q22.086 -7.646 21.52 -8.271 Q20.953 -8.896 19.957 -8.896 Q18.941 -8.896 18.282 -8.242 Q17.623 -7.588 17.623 -6.396 Z M26.33 0 L26.33 -10.918 L28.869 -10.918 L28.869 0 Z M27.6 -12.461 Q26.994 -12.461 26.56 -12.866 Q26.125 -13.271 26.125 -13.857 Q26.125 -14.434 26.56 -14.839 Q26.994 -15.244 27.6 -15.244 Q28.215 -15.244 28.649 -14.839 Q29.084 -14.434 29.084 -13.857 Q29.084 -13.271 28.649 -12.866 Q28.215 -12.461 27.6 -12.461 Z M30.564 0 L30.564 -10.918 L33.025 -10.918 L33.025 -9.092 L33.143 -9.092 Q33.436 -10.039 34.168 -10.552 Q34.9 -11.064 35.838 -11.064 Q36.326 -11.064 36.766 -10.996 L36.766 -8.662 Q36.609 -8.701 36.258 -8.745 Q35.906 -8.789 35.564 -8.789 Q34.5 -8.789 33.802 -8.13 Q33.104 -7.471 33.104 -6.426 L33.104 0 Z M37.699 4.082 L37.699 -10.918 L40.18 -10.918 L40.18 -9.111 L40.346 -9.111 Q40.531 -9.492 40.893 -9.946 Q41.254 -10.4 41.879 -10.728 Q42.504 -11.055 43.471 -11.055 Q44.73 -11.055 45.751 -10.41 Q46.771 -9.766 47.372 -8.511 Q47.973 -7.256 47.973 -5.439 Q47.973 -3.643 47.382 -2.383 Q46.791 -1.123 45.775 -0.464 Q44.76 0.195 43.461 0.195 Q42.523 0.195 41.903 -0.122 Q41.283 -0.439 40.912 -0.889 Q40.541 -1.338 40.346 -1.729 L40.238 -1.729 L40.238 4.082 Z M42.777 -1.895 Q44.047 -1.895 44.706 -2.905 Q45.365 -3.916 45.365 -5.449 Q45.365 -6.973 44.716 -7.969 Q44.066 -8.965 42.777 -8.965 Q41.518 -8.965 40.854 -8.003 Q40.189 -7.041 40.189 -5.449 Q40.189 -3.857 40.863 -2.876 Q41.537 -1.895 42.777 -1.895 Z" fill="#000000" transform="translate(-0.833 15.621) scale(0.828)" /></svg>